M48
INCH
T01C0.0200
T02C0.1574
T03C0.0700
T04C0.0600
T05C0.1181
T06C0.0380
T07C0.0400
T08C0.0300
T09C0.0250
T10C0.0900
%
T01
X+022750Y-022500
X+019500Y-030750
X+023250Y-032250
X+023250Y-034750
X+039250Y-030750
X+039250Y-011750
X+027750Y-020250
X+027750Y-012250
X+005250Y-008500
X+002000Y-008500
X+039500Y-007500
X+038750Y-032500
X+018750Y-039750
X+017500Y-039750
X+007750Y-039750
X+014750Y-018500
X+033500Y-018500
X+037750Y-041250
X+009000Y-047750
X+021000Y-029250
X+016500Y-024000
X+019750Y-034250
X+023750Y-034250
X+023750Y-021250
X+017000Y-021250
X+012000Y-016500
X+017250Y-016500
X+016000Y-019250
X+008750Y-018500
X+011750Y-027750
X+011750Y-028750
X+003000Y-028750
X+003000Y-029750
X+003750Y-035250
X+003750Y-036750
X+001500Y-046000
X+021500Y-022500
X+021500Y-019500
X+034500Y-019500
X+020750Y-047250
X+000500Y-019000
X+004000Y-019000
X+008000Y-023500
X+022750Y-036250
X+022750Y-031250
X+005500Y-024500
X+027250Y-037000
X+024250Y-019000
X+023250Y-023500
X+010500Y-023750
X+026750Y-027750
X+026000Y-039250
X+026000Y-040250
X+036000Y-051750
X+040000Y-048500
X+029500Y-029250
X+033000Y-041250
X+030250Y-041750
X+005500Y-031750
X+005000Y-032250
X+013250Y-029750
X+009750Y-006500
X+013000Y-024250
X+011500Y-024250
X+014750Y-044750
X+003750Y-028250
X+003750Y-029750
X+018000Y-039250
X+011250Y-043250
X+022250Y-015000
X+016250Y-032750
X+019250Y-032750
X+010750Y-046750
X+018750Y-046750
X+021500Y-028750
X+020000Y-028750
X+001000Y-004750
X+005250Y-022000
X+001500Y-022000
X+017500Y-045250
X+016500Y-037750
X+015250Y-035500
X+046000Y-009500
X+030000Y-025500
X+032250Y-020250
X+012000Y-017250
X+019250Y-017250
X+021750Y-005500
X+003250Y-039500
T02
X+005000Y-003000
X+053000Y-003000
X+053000Y-052000
X+005000Y-052000
T03
X+021000Y-004000
X+022560Y-004000
X+024120Y-004000
X+025680Y-004000
X+027240Y-004000
X+030500Y-004000
X+032060Y-004000
X+033620Y-004000
X+035180Y-004000
X+012000Y-001750
X+018000Y-001750
T04
X+055500Y-009250
X+055500Y-011250
X+055500Y-013250
X+055500Y-015250
X+055500Y-045000
X+055500Y-043000
X+055500Y-041000
X+045000Y-040750
X+045000Y-045474
X+044212Y-043112
X+049803Y-045474
X+049803Y-040750
X+045000Y-033500
X+045000Y-038224
X+044212Y-035862
X+049803Y-038224
X+049803Y-033500
X+045000Y-026250
X+045000Y-030974
X+044212Y-028612
X+049803Y-030974
X+049803Y-026250
X+045000Y-019000
X+045000Y-023724
X+044212Y-021362
X+049803Y-023724
X+049803Y-019000
X+055500Y-023250
X+055500Y-021250
X+055500Y-019250
X+055500Y-037750
X+055500Y-035750
X+055500Y-033750
X+055500Y-030500
X+055500Y-028500
X+055500Y-026500
X+021000Y-052000
X+023000Y-052000
X+025000Y-052000
X+027000Y-052000
T05
X+004000Y-010000
X+004000Y-025750
X+020500Y-010000
X+020500Y-025750
X+025000Y-010000
X+033500Y-010000
X+038000Y-009000
X+049750Y-015500
T06
X+018250Y-033500
X+018250Y-034500
X+017250Y-033500
X+017250Y-034500
X+016250Y-033500
X+016250Y-034500
X+015250Y-033500
X+015250Y-034500
X+014250Y-033500
X+014250Y-034500
X+013250Y-033500
X+013250Y-034500
X+012250Y-033500
X+012250Y-034500
X+011250Y-033500
X+011250Y-034500
X+010250Y-033500
X+010250Y-034500
X+009250Y-033500
X+009250Y-034500
X+008250Y-033500
X+008250Y-034500
X+007250Y-033500
X+007250Y-034500
X+006250Y-033500
X+006250Y-034500
X+018250Y-026250
X+017250Y-026250
X+016250Y-026250
X+015250Y-026250
X+014250Y-026250
X+013250Y-026250
X+012250Y-026250
X+011250Y-026250
X+010250Y-026250
X+009250Y-026250
X+008250Y-026250
X+007250Y-026250
X+006250Y-026250
X+018250Y-030500
X+017250Y-030500
X+016250Y-030500
X+015250Y-030500
X+014250Y-030500
X+013250Y-030500
X+012250Y-030500
X+011250Y-030500
X+010250Y-030500
X+009250Y-030500
X+008250Y-030500
X+007250Y-030500
X+006250Y-030500
T07
X+010000Y-045500
X+009000Y-045500
X+008000Y-045500
X+007000Y-045500
X+006000Y-045500
X+005000Y-045500
X+004000Y-045500
X+003000Y-045500
X+024500Y-016000
X+024500Y-015000
X+024500Y-014000
X+024500Y-013000
X+024500Y-012000
X+051750Y-008750
X+051750Y-015750
X+036000Y-008750
X+036000Y-015750
X+038750Y-004000
X+039750Y-004000
X+040750Y-004000
X+041750Y-004000
X+042750Y-004000
X+043750Y-004000
X+044750Y-004000
X+045750Y-004000
X+017000Y-050500
X+017000Y-052500
X+012000Y-050500
X+012000Y-052500
X+042000Y-052500
X+043000Y-052500
X+044000Y-052500
X+025000Y-021000
X+026000Y-021000
X+025000Y-024000
X+026000Y-024000
X+025000Y-027000
X+026000Y-027000
X+025000Y-030000
X+026000Y-030000
X+042000Y-042000
X+042000Y-046000
X+042000Y-035000
X+042000Y-039000
X+042000Y-027500
X+042000Y-031500
X+042000Y-020250
X+042000Y-024250
X+028350Y-036500
X+029250Y-036500
X+030150Y-036500
X+028350Y-038750
X+029250Y-038750
X+030150Y-038750
X+028350Y-041000
X+029250Y-041000
X+030150Y-041000
X+036000Y-052500
X+037000Y-052500
X+038000Y-052500
X+039000Y-052500
X+030000Y-052500
X+031000Y-052500
X+032000Y-052500
X+033000Y-052500
X+006000Y-041500
X+005000Y-041500
X+004000Y-041500
X+003000Y-041500
X+007000Y-037500
X+006000Y-037500
X+005000Y-037500
X+004000Y-037500
X+003000Y-037500
X+034500Y-041000
X+035500Y-041000
X+016750Y-005500
X+015750Y-005500
X+014750Y-005500
X+013750Y-005500
X+016250Y-006500
X+015250Y-006500
X+014250Y-006500
X+013250Y-006500
T08
X+004500Y-023000
X+005500Y-023000
X+006500Y-023000
X+007500Y-023000
X+008500Y-023000
X+009500Y-023000
X+010500Y-023000
X+011500Y-023000
X+011500Y-020000
X+010500Y-020000
X+009500Y-020000
X+008500Y-020000
X+007500Y-020000
X+006500Y-020000
X+005500Y-020000
X+004500Y-020000
X+020000Y-020000
X+019000Y-020000
X+018000Y-020000
X+017000Y-020000
X+016000Y-020000
X+015000Y-020000
X+014000Y-020000
X+013000Y-020000
X+013000Y-023000
X+014000Y-023000
X+015000Y-023000
X+016000Y-023000
X+017000Y-023000
X+018000Y-023000
X+019000Y-023000
X+020000Y-023000
X+017000Y-041000
X+017000Y-037000
X+015750Y-041000
X+015750Y-037000
X+014500Y-041000
X+014500Y-037000
X+013250Y-041000
X+013250Y-037000
X+004250Y-018000
X+005250Y-018000
X+006250Y-018000
X+007250Y-018000
X+008250Y-018000
X+009250Y-018000
X+010250Y-018000
X+011250Y-018000
X+012250Y-018000
X+013250Y-018000
X+014250Y-018000
X+015250Y-018000
X+016250Y-018000
X+017250Y-018000
X+017250Y-015000
X+016250Y-015000
X+015250Y-015000
X+014250Y-015000
X+013250Y-015000
X+012250Y-015000
X+011250Y-015000
X+010250Y-015000
X+009250Y-015000
X+008250Y-015000
X+007250Y-015000
X+006250Y-015000
X+004257Y-015000
X+021000Y-037000
X+021000Y-041000
X+012500Y-013250
X+014500Y-013250
X+004500Y-013250
X+006500Y-013250
X+008500Y-013250
X+010500Y-013250
X+026000Y-037000
X+026000Y-041000
X+024750Y-037000
X+024750Y-041000
X+023500Y-037000
X+023500Y-041000
X+022250Y-037000
X+022250Y-041000
X+023250Y-046250
X+024250Y-046250
X+025250Y-046250
X+026250Y-046250
X+027250Y-046250
X+028250Y-046250
X+029250Y-046250
X+030250Y-046250
X+031250Y-046250
X+032250Y-046250
X+033250Y-046250
X+034250Y-046250
X+035250Y-046250
X+036250Y-046250
X+036250Y-043250
X+035250Y-043250
X+034250Y-043250
X+033250Y-043250
X+032250Y-043250
X+031250Y-043250
X+030250Y-043250
X+029250Y-043250
X+028250Y-043250
X+027250Y-043250
X+026250Y-043250
X+025250Y-043250
X+023257Y-043250
X+014000Y-044000
X+014000Y-046000
X+016250Y-044000
X+016250Y-046000
X+019500Y-044000
X+019500Y-046000
X+027750Y-021000
X+027750Y-022000
X+027750Y-023000
X+030750Y-023000
X+030750Y-022000
X+030750Y-021000
X+027750Y-025250
X+027750Y-026250
X+027750Y-027250
X+030750Y-027250
X+030750Y-026250
X+030750Y-025250
X+017250Y-012750
X+021250Y-012750
X+021250Y-013750
X+017250Y-013750
X+033000Y-020000
X+033000Y-021000
X+033000Y-022000
X+033000Y-023000
X+033000Y-024000
X+033000Y-025000
X+033000Y-026000
X+033000Y-027000
X+033000Y-028000
X+033000Y-029000
X+033000Y-030000
X+033000Y-031000
X+033000Y-032000
X+033000Y-033000
X+036000Y-033000
X+036000Y-032000
X+036000Y-031000
X+036000Y-030000
X+036000Y-029000
X+036000Y-028000
X+036000Y-027000
X+036000Y-026000
X+036000Y-025000
X+036000Y-024000
X+036000Y-023000
X+036000Y-022000
X+036000Y-020007
X+040000Y-046000
X+040000Y-042000
X+042050Y-040500
X+041250Y-040500
X+040450Y-040500
X+042050Y-033250
X+041250Y-033250
X+040450Y-033250
X+040000Y-039000
X+040000Y-035000
X+040000Y-031500
X+040000Y-027500
X+042050Y-026000
X+041250Y-026000
X+040450Y-026000
X+040000Y-024250
X+040000Y-020250
X+042050Y-018750
X+041250Y-018750
X+040450Y-018750
X+028250Y-030000
X+030250Y-030000
X+028250Y-032000
X+030250Y-032000
X+028250Y-034000
X+030250Y-034000
X+033000Y-035000
X+037000Y-035000
X+033000Y-036250
X+037000Y-036250
X+033000Y-037500
X+037000Y-037500
T09
X+005250Y-015000
X+024250Y-043250
X+036000Y-021000
T10
X+012750Y-002750
X+017250Y-002750
M30
